<svg width="47.9mm" height="47.9mm" version="1.1" viewBox="0 0 47.9 47.9" xmlns="http://www.w3.org/2000/svg" xmlns:xlink="http://www.w3.org/1999/xlink">
 <defs>
  <linearGradient id="linearGradient14251" x1="150" x2="74.6" y1="188" y2="76.6" gradientTransform="matrix(.329 0 0 .329 14.6 55)" gradientUnits="userSpaceOnUse">
   <stop stop-color="#007d7d" offset="0"/>
   <stop stop-color="#72cfcf" offset="1"/>
  </linearGradient>
 </defs>
 
 <g transform="translate(2,2)">
  <g transform="translate(-25.4 -78)">
   <circle cx="47.4" cy="99.9" r="22" fill="url(#linearGradient14251)" opacity=".704" stroke-linecap="round" stroke-linejoin="round" stroke-width=".358"/>
   <path class="vaca" d="m51.3 101c-2.56 0.83-5.01 1.8-7.37 2.89l-0.01 0.08c2.48-0.84 5.02-1.77 7.44-2.91zm0.145-0.156 9.54-13.1-0.261 1.32-9.22 12zm10.9-14.2c-0.07-0.01-0.253 0.083-0.657 0.287-0.608 0.306-0.608 0.306-1.99 11.3-0.76 6.07-1.39 11.2-1.41 11.4-0.05 0.65 0.05 0.204 0.368-1.66 0.172-1.01 0.519-3.01 0.769-4.44 0.566-3.23 0.752-4.3 0.981-5.61 0.169-0.969 0.422-2.41 0.826-4.71 0.196-1.12 0.509-2.92 0.848-4.87 0.126-0.728 0.252-1.42 0.279-1.53 0.03-0.114 0.04-0.178-0.01-0.183zm-27.6 13.6c0-0.01-0.361 0.06-0.787 0.163-0.859 0.203-0.923-0.127 0.601 3.09 0.211 0.444 0.706 1.5 1.1 2.33 1.14 2.43 3.18 6.73 3.23 6.8 0.09 0.16 0.106 0.05 0.02-0.18-0.1-0.248-2.19-6.39-3.46-10.2-0.374-1.11-0.687-2.03-0.694-2.04zm0.324 0.265c-0.124 0-0.02 0.154 0.111 0.41 0.228 0.45 0.228 0.45 4.25 1.8 4.86 1.63 5.16 1.7 2.58 0.637-1.86-0.766-2.47-1.02-4.89-2.04-1.35-0.57-1.89-0.809-2.05-0.804zm17-11.6c-0.548 0.666-1.43 0.096-2.14 0.436-0.328 0.269-1.64-0.41-0.821 0.318 0.62 0.246 0.189 0.653-0.299 0.45-0.41 0.024-1.16 0.588-1.1 0.892 0.479 0.29 1.09 0.212 1.51 0.079-0.266 0.875-1.12 1.28-1.88 1.65-0.897 0.588-2.02 0.511-3.01 0.828-0.942 0.203-1.91 0.275-2.83 0.585-0.94 0.131-0.534-1.31-1.38-1.54-0.568-0.585-1.5-0.682-2.22-0.384-0.453 0.197-1.51 0.614-1.43 0.989 0.155 0.227-0.456 0.726-0.187 1.11-0.151 0.754 0.1 0.14 0.239-0.21-0.01 0.333 0.504 1.4 0.272 0.534-0.268-0.323 0.273-1.49 0.09-0.566 0.142 0.485 0.105-0.713 0.523-0.755 0.592-0.58 1.52-1.14 2.33-0.641 0.588 0.455 0.804 1.3 0.887 2-0.584 0.565-1.38 1.2-0.728 2.08 0.161 0.94 0.462 1.88 1.1 2.61 0.498 0.104 0.533 0.445 0.265 0.787-0.227 0.433-1.14 1.58-0.119 1.44 0.642 0.11 1.7 0.07 1.65 0.827 0.777-0.225-0.507 0.67 0.195 1.02 0.439 0.469 0.701 0.677 0.834 0.205 0.801 0.44 0.229-0.983 0.306-1.43 0.269-1.11-1.53-0.683-1.44-1.65 0.151-0.241 0.584-1.54 0.566-0.66-0.463 1.07 0.833 0.719 1.43 0.57 0.488-0.05 1.61-0.293 0.968 0.441-0.09 0.61 1.44 1.18 1.2 0.353 0.902 0.394-0.09-1.08-0.08-1.49-0.29-0.748-1.68 0.08-1.77-0.474 0.855 0.078 1.44-0.65 2.26-0.82 0.675-0.216 1.23 1.17 0.259 0.911-0.603 0.19-0.718 0.745-0.01 0.867 0.836 0.644 1.39-0.615 1.78-1.17 0.389-0.369-0.571-1.39 0.171-1.23 0.05 0.93 0.991 0.828 1.55 0.383 0.782-0.727 0.134 0.623-0.156 0.878 0.354 0.652-1.11 0.161-0.765 1.03 0.02 0.469 0.3 1.14 0.781 0.79 0.671 0.258 0.62-1.16 1.11-1.48 0.125-0.746 0.02-1.58 0.502-2.24 0.101-0.709-0.708-1.12-1.21-0.56-0.236-0.311 0.584-0.939 0.496-1.49 0.205-0.717 0.205-1.57 0.788-2.11 0.328-0.385 1.02-0.032 1.4-0.447 0.918-0.579 0.06-1.65-0.657-1.94-0.456-0.41-1.09-0.816-1.42-1.2 0.04-0.156 0.391-0.465 0.179-0.591zm-15 4.09c0.03 0.298-0.917 1.08-0.31 0.293 0.09-0.107 0.18-0.226 0.31-0.293zm0.522-0.039c0.114 0.29-0.506 0.235 0 0z" 
   color-rendering="auto" dominant-baseline="auto" image-rendering="auto" shape-rendering="auto" solid-color="#000000" stop-color="#000000" 
   />
   <path class="chapeu" d="m37.6 88.1c1.16-0.479 2.2-0.901 3.42-1.22l0.567-0.06 0.215 0.149c0.09 0.014 0.08-0.061 0.09-0.116l-0.182-0.165c-0.06-0.113-0.05-0.232 0.265-0.374 0.224-0.05 0.448-0.051 0.671-0.027l0.149 0.083c0.09-0.058 0.08-0.079 0.06-0.094-0.852-0.467-1.96-1.16-3.37-1.34l-1.11 0.043c-0.646-0.137-1.25 0.147-1.86 0.391-0.07 0-0.137 0-0.206-0.105l-0.333-0.742c-0.06-0.021-0.11-0.078-0.102 0.047l0.271 0.828c0 0.057 0 0.126-0.08 0.113-0.276 0.071-0.481 0.254-0.709 0.401-0.385 0.213-0.762 0.435-1.14 0.658-1.35 1.04-1.81 2.65-2.41 4.06 0.03 0.026 0.05 0.068 0.117 0.035l0.109-0.284c0.278-0.226 0.613-0.407 0.892-0.463l-0.02 0.171c0.03 0.042 0.06 0.071 0.09 0l0.05-0.187c0.649-0.393 1.3-0.548 1.95-0.685 0.138 0 0.266 0.022 0.374 0.067l0.01 0.19c0.114 0.069 0.121 0.01 0.163-0.012v-0.222c0.479-0.508 1.13-0.745 1.78-0.996l1.31 3.25-0.03 0.055 0.481 1.19c0.03 0.605-0.849 0.674-0.753 0.023-0.145-0.237-0.193-0.105-0.259-0.046-0.05 1.16 1.39 0.787 1.41-0.011l-0.512-1.35-0.08 0.037z" stroke="#fff" stroke-linecap="round" stroke-linejoin="round" stroke-width=".102"/>
   <text x="39.4582" y="113.973" font-family="sans-serif" font-size="9.62px" letter-spacing="1.29px" stroke="#000000" stroke-width=".437" word-spacing="0px" style="line-height:1.25" xml:space="preserve"><tspan x="39.4582" y="113.973" font-family="Consolas" stroke="#000000" stroke-width=".437">m0∞</tspan></text>
  </g>
 </g>
 <style>
    .chapeu {
        transform-origin: 39.7px 92.3px;
        animation: escala 4s ease-in-out .1s infinite alternate;
    }
    @keyframes escala {
            0% {    transform: rotate(-20deg);
            }
            100% {  transform: rotate(40deg);
            }
    }
    .vaca {
        fill: #000000;
        
        transition: fill 2s;
        
    }
    .vaca:hover {
        
        fill: #ff0000;
    }
 </style>
</svg>