<?xml version="1.0" encoding="UTF-8" standalone="no"?>
<!-- Created with enve https://maurycyliebner.github.io -->

<svg xmlns="http://www.w3.org/2000/svg" viewBox="0 0 1920 1080" xmlns:xlink="http://www.w3.org/1999/xlink">
 <rect height="1080" width="1920" fill="#c5ffff"/>
 <g transform="translate(-110.369 161.167)">
  <g transform="translate(930.2 401.754)">
   <g transform="rotate(0)">
    <g transform="scale(26.9366 26.9366)">
     <g transform="skewX(0) skewY(0)">
      <g opacity="1" transform="translate(110.369 -161.167)">
       <g>
        <g transform="translate(-109.476 162.555)">
         <g transform="translate(0 0)">
          <g transform="rotate(0)">
           <g transform="scale(1 1)">
            <g transform="skewX(0) skewY(0)">
             <g opacity="0.378641" transform="translate(109.476 -162.555)">
              <path stroke-width="0.157686" d="M-105.355 144.717C-114.03 144.849 -130.431 150.205 -129.298 154.158C-129.298 154.158 -114.929 180.396 -114.929 180.396C-114.929 180.396 -89.5889 180.396 -89.5889 180.396C-89.5889 180.396 -89.5889 158.62 -89.5889 158.62C-89.5889 158.62 -100.439 145.981 -100.439 145.981C-101.103 145.053 -102.926 144.681 -105.355 144.717C-105.355 144.717 -105.355 144.717 -105.355 144.717Z" fill="#000000" stroke="none"/>
             </g>
            </g>
           </g>
          </g>
         </g>
        </g>h
        <g transform="translate(-105.324 164.334)">
         <g>
          <animateTransform values="-0.317263 0;-0.317263 0;-10.156 0;-10.156 0" keySplines="0 0 1 1;0 0 1 1;0 0 1 1" attributeName="transform" dur="2.08333s" calcMode="spline" type="translate" repeatCount="indefinite" keyTimes="0;0;0.9;1"/>
          <g>
           <animateTransform values="0 7.19129;0 7.19129;0 -16.4437;0 -16.4437" keySplines="0 0 1 1;0 0 1 1;0 0 1 1" attributeName="transform" dur="2.08333s" calcMode="spline" type="translate" repeatCount="indefinite" keyTimes="0;0;0.9;1"/>
           <g transform="rotate(0)">
            <g>
             <animateTransform values="1 1;1 1;0.1 1;0.1 1" keySplines="0 0 1 1;0 0 1 1;0 0 1 1" attributeName="transform" dur="2.08333s" calcMode="spline" type="scale" repeatCount="indefinite" keyTimes="0;0;0.9;1"/>
             <g>
              <animateTransform values="1 1;1 1;1 0.1;1 0.1" keySplines="0 0 1 1;0 0 1 1;0 0 1 1" attributeName="transform" dur="2.08333s" calcMode="spline" type="scale" repeatCount="indefinite" keyTimes="0;0;0.9;1"/>
              <g transform="skewX(0) skewY(0)">
               <g transform="translate(105.324 -164.334)">
                <path stroke-width="0.0841515" d="M-100.622 173.876C-100.401 174.031 -99.8226 173.201 -99.4129 172.835C-99.4129 172.835 -99.441 172.357 -99.441 172.357C-99.1147 172.043 -98.8182 171.639 -98.5976 171.008C-98.5976 171.008 -98.0634 170.952 -98.0634 170.952C-97.6361 170.419 -97.2118 169.881 -96.6296 169.658C-96.538 168.026 -95.7933 167.599 -95.0271 167.213C-94.0518 166.66 -93.2668 165.981 -92.6093 165.216C-92.0798 165.488 -92.6951 167.286 -92.7499 168.337C-92.7499 168.337 -93.9307 170.671 -93.9307 170.671C-93.6777 171.71 -93.4246 171.448 -93.1716 171.43C-92.7476 170.735 -92.6108 170.264 -92.9282 169.94C-92.7058 169.493 -92.5042 168.85 -92.1876 168.309C-92.1876 168.309 -90.4727 162.068 -90.4727 162.068C-91.0712 160.195 -93.4625 159.078 -95.3926 157.766C-98.5418 155.78 -102.113 154.398 -106.976 154.871C-108.623 155.093 -110.538 153.841 -111.783 156.276C-113.579 157.489 -114.684 159.392 -116.113 160.971C-116.982 161.345 -117.797 161.445 -118.615 161.562C-118.615 161.562 -118.896 162.124 -118.896 162.124C-118.896 162.124 -120.02 161.983 -120.02 161.983C-120.17 162.112 -120.266 162.256 -120.049 162.49C-120.049 162.49 -119.065 162.996 -119.065 162.996C-119.338 163.341 -119.261 163.408 -119.289 163.558C-118.294 165.229 -118.536 166.059 -118.84 166.847C-118.682 167.396 -118.335 167.191 -118.081 167.353C-117.599 167.203 -117.191 167.271 -116.815 167.438C-116.815 167.438 -116.253 166.791 -116.253 166.791C-115.354 166.824 -114.859 165.715 -114.257 164.907C-113.826 164.698 -113.395 164.615 -112.964 164.008C-112.964 164.008 -111.546 164.02 -111.546 164.02C-111.143 164.636 -110.893 164.986 -110.405 164.682C-110.566 165.813 -110.138 166.308 -109.674 166.763C-109.703 167.769 -109.797 169.097 -109.731 169.63C-109.485 170.169 -109.051 170.496 -108.381 170.558C-108.005 170.39 -108.2 169.936 -108.213 169.574C-107.828 169.367 -107.444 169.739 -107.06 169.827C-106.757 169.499 -106.906 169.171 -106.891 168.843C-107.171 168.572 -107.541 168.605 -107.678 167.859C-106.699 166.979 -107.421 165.472 -107.341 164.26C-106.573 163.625 -105.804 164.058 -105.036 164.035C-104.452 164.914 -103.477 165.155 -102.477 165.357C-102.509 165.673 -102.557 165.748 -102.815 165.891C-102.522 166.049 -102.449 166.217 -102.337 166.509C-102.337 166.509 -102.505 167.044 -102.505 167.044C-102.505 167.044 -101.999 167.156 -101.999 167.156C-101.999 167.156 -102.027 167.747 -102.027 167.747C-102.027 167.747 -101.1 167.747 -101.1 167.747C-101.332 168.743 -101.591 169.707 -102.084 170.389C-102.092 171.053 -102.186 171.605 -102.562 171.795C-102.601 172.538 -102.417 172.684 -102.14 172.582C-101.799 172.38 -101.416 172.171 -101.381 172.02C-101.381 172.02 -101.381 171.233 -101.381 171.233C-100.874 171.381 -100.74 171.103 -100.594 170.839C-100.594 170.839 -100.144 169.349 -100.144 169.349C-99.7783 169.013 -99.4129 168.622 -99.0474 168.59C-99.0474 168.59 -99.2161 169.996 -99.2161 169.996C-99.2161 169.996 -100.875 172.329 -100.875 172.329C-100.928 173.139 -100.935 173.85 -100.622 173.875C-100.622 173.875 -100.622 173.876 -100.622 173.876Z" stroke="#ffffff">
                 <animate values="#000000;#060400;#0c0800;#130d00;#191100;#201600;#261a00;#2d1f00;#332300;#3a2800;#402c00;#473100;#4d3500;#543a00;#5a3e00;#604300;#674700;#6d4c00;#745000;#7a5500;#815900;#875e00;#8e6200;#946700;#9b6b00;#a17000;#a87400;#ae7900;#ae7200;#ae6c00;#ae6600;#ae6000;#ae5a00;#ae5400;#ae4e00;#ae4800;#ae4200;#ae3c00;#ae3600;#ae2f00;#ae2900;#ae2900" attributeName="fill" dur="2.08333s" calcMode="linear" repeatCount="indefinite" keyTimes="0;0.02;0.04;0.06;0.08;0.1;0.12;0.14;0.16;0.18;0.2;0.22;0.24;0.26;0.28;0.3;0.32;0.34;0.36;0.38;0.4;0.42;0.44;0.46;0.48;0.5;0.52;0.54;0.56;0.58;0.6;0.62;0.64;0.66;0.68;0.7;0.72;0.74;0.76;0.78;0.8;1"/>
                </path>
                <animate values="1;1;0;0" keySplines="0 0 1 1;0 0 1 1;0 0 1 1" attributeName="opacity" dur="2.08333s" calcMode="spline" repeatCount="indefinite" keyTimes="0;0.54;0.9;1"/>
               </g>
              </g>
             </g>
            </g>
           </g>
          </g>
         </g>
        </g>
        <g transform="translate(-110.436 179.21)">
         <g>
          <animateTransform values="5.5 0;5.5 0;5.5 1.6;5.5 1.6" keySplines="0 0 1 1;0 0 1 1;0 0 1 1" attributeName="transform" dur="2.08333s" calcMode="spline" type="translate" repeatCount="indefinite" keyTimes="0;0;0.3;1"/>
          <g transform="rotate(0)">
           <g transform="scale(1.72 1)">
            <g>
             <animateTransform values="1 1;1 1;1 0.61;1 0.61" keySplines="0 0 1 1;0 0 1 1;0 0 1 1" attributeName="transform" dur="2.08333s" calcMode="spline" type="scale" repeatCount="indefinite" keyTimes="0;0;0.3;1"/>
             <g transform="skewX(0) skewY(0)">
              <g opacity="1" transform="translate(110.436 -179.21)">
               <path stroke-width="0.157686" fill="#000000" stroke="none">
                <animate values="M-131.149 177.479C-131.149 177.479 -131.149 180.575 -131.149 180.575C-129.896 180.631 -128.643 180.69 -127.391 180.752C-124.343 180.741 -123.94 180.759 -120.594 180.939C-112.785 180.939 -104.975 180.939 -97.1652 180.939C-94.6895 180.921 -92.2056 180.932 -89.7223 180.941C-89.7223 180.941 -89.7223 177.986 -89.7223 177.986C-90.0089 177.945 -90.2715 177.922 -90.4881 177.939C-90.5122 178.895 -92.754 177.751 -94.3111 177.939C-94.9226 178.899 -96.6854 178.976 -98.2933 178.251C-99.8218 177.7 -101.667 178.963 -103.207 178.058C-104.557 178.663 -105.706 178.152 -107.691 178.314C-109.339 179.062 -110.585 177.954 -112.018 178.367C-112.941 179.225 -114.332 177.597 -115.337 178.564C-116.635 177.758 -117.739 177.918 -119.001 178.626C-120.229 178.263 -123.784 176.899 -122.346 178.376C-119.541 180.141 -125.615 179.108 -127.443 178.439C-129.942 177.17 -129.067 178.053 -130.788 178.876C-130.242 178.17 -130.295 177.536 -131.149 177.479C-131.149 177.479 -131.149 177.479 -131.149 177.479Z;M-131.149 177.479C-131.149 177.479 -131.149 180.575 -131.149 180.575C-129.896 180.631 -128.643 180.69 -127.391 180.752C-124.343 180.741 -123.94 180.759 -120.594 180.939C-112.785 180.939 -104.975 180.939 -97.1652 180.939C-94.6895 180.921 -92.2056 180.932 -89.7223 180.941C-89.7223 180.941 -89.7223 177.986 -89.7223 177.986C-90.0089 177.945 -90.2715 177.922 -90.4881 177.939C-90.5122 178.895 -92.754 177.751 -94.3111 177.939C-94.9226 178.899 -96.6854 178.976 -98.2933 178.251C-99.8218 177.7 -101.667 178.963 -103.207 178.058C-104.557 178.663 -105.706 178.152 -107.691 178.314C-109.339 179.062 -110.585 177.954 -112.018 178.367C-112.941 179.225 -114.332 177.597 -115.337 178.564C-116.635 177.758 -117.739 177.918 -119.001 178.626C-120.229 178.263 -123.784 176.899 -122.346 178.376C-119.541 180.141 -125.615 179.108 -127.443 178.439C-129.942 177.17 -129.067 178.053 -130.788 178.876C-130.242 178.17 -130.295 177.536 -131.149 177.479C-131.149 177.479 -131.149 177.479 -131.149 177.479Z;M-131.149 177.479C-131.149 177.479 -131.149 180.575 -131.149 180.575C-129.896 180.631 -128.643 180.69 -127.391 180.752C-124.343 180.741 -123.94 180.759 -120.594 180.939C-112.785 180.939 -104.975 180.939 -97.1652 180.939C-94.6895 180.921 -92.2056 180.932 -89.7223 180.941C-89.7223 180.941 -89.7223 177.986 -89.7223 177.986C-90.0089 177.945 -92.9154 173.957 -93.132 173.973C-93.1561 174.929 -92.754 177.751 -94.3111 177.939C-94.9226 178.899 -98.5706 174.696 -100.179 173.971C-100.461 183.276 -101.882 175.931 -104.692 173.706C-106.054 182.034 -106.872 175.786 -108.205 174.789C-108.898 181.016 -110.402 177.185 -110.992 174.139C-111.187 179.374 -112.672 178.579 -114.161 174.195C-114.512 174.51 -115.533 181.302 -117.185 174.547C-119.229 179.969 -120.915 177.901 -119.762 172.326C-122.364 175.273 -129.517 180.811 -126.268 176.97C-126.416 175.848 -129.067 178.053 -130.788 178.876C-130.242 178.17 -130.295 177.536 -131.149 177.479C-131.149 177.479 -131.149 177.479 -131.149 177.479Z;M-131.149 177.479C-131.149 177.479 -131.149 180.575 -131.149 180.575C-129.896 180.631 -128.643 180.69 -127.391 180.752C-124.343 180.741 -123.94 180.759 -120.594 180.939C-112.785 180.939 -104.975 180.939 -97.1652 180.939C-94.6895 180.921 -92.2056 180.932 -89.7223 180.941C-89.7223 180.941 -89.7223 177.986 -89.7223 177.986C-90.0089 177.945 -92.9154 173.957 -93.132 173.973C-93.1561 174.929 -92.754 177.751 -94.3111 177.939C-94.9226 178.899 -98.5706 174.696 -100.179 173.971C-100.461 183.276 -101.882 175.931 -104.692 173.706C-106.054 182.034 -106.872 175.786 -108.205 174.789C-108.898 181.016 -110.402 177.185 -110.992 174.139C-111.187 179.374 -112.672 178.579 -114.161 174.195C-114.512 174.51 -115.533 181.302 -117.185 174.547C-119.229 179.969 -120.915 177.901 -119.762 172.326C-122.364 175.273 -129.517 180.811 -126.268 176.97C-126.416 175.848 -129.067 178.053 -130.788 178.876C-130.242 178.17 -130.295 177.536 -131.149 177.479C-131.149 177.479 -131.149 177.479 -131.149 177.479Z" keySplines="0 0 1 1;0 0 1 1;0 0 1 1" attributeName="d" dur="2.08333s" calcMode="spline" repeatCount="indefinite" keyTimes="0;0;0.3;1"/>
               </path>
              </g>
             </g>
            </g>
           </g>
          </g>
         </g>
        </g>
        <g transform="translate(-115.145 147.896)">
         <g transform="translate(0 0)">
          <g transform="rotate(0)">
           <g transform="scale(1 1)">
            <g transform="skewX(0) skewY(0)">
             <g opacity="1" transform="translate(115.145 -147.896)">
              <g>
               <g transform="translate(-115.491 146.97)">
                <g transform="translate(0 0)">
                 <g transform="rotate(0)">
                  <g transform="scale(1 1)">
                   <g transform="skewX(0) skewY(0)">
                    <g opacity="1" transform="translate(115.491 -146.97)">
                     <path stroke-width="0" d="M-106.575 146.005C-105.59 149.682 -109.895 149.107 -114.809 150.424C-119.722 151.74 -123.383 154.45 -124.369 150.773C-125.354 147.095 -122.169 143.047 -117.256 141.731C-112.342 140.414 -107.56 142.328 -106.575 146.005C-106.575 146.005 -106.575 146.005 -106.575 146.005Z" fill="#1a1a1a" stroke="#333333"/>
                    </g>
                   </g>
                  </g>
                 </g>
                </g>
               </g>
               <g transform="translate(-115.145 148.875)">
                <g transform="translate(0 0)">
                 <g transform="rotate(0)">
                  <g transform="scale(1 1)">
                   <g transform="skewX(0) skewY(0)">
                    <g opacity="1" transform="translate(115.145 -148.875)">
                     <path stroke-width="0" d="M-100.312 144.901C-99.7275 147.081 -105.895 150.628 -114.087 152.823C-122.279 155.018 -129.394 155.03 -129.978 152.85C-130.563 150.669 -124.395 147.123 -116.203 144.927C-108.011 142.732 -100.896 142.72 -100.312 144.901C-100.312 144.901 -100.312 144.901 -100.312 144.901Z" fill="#1a1a1a" stroke="#333333"/>
                    </g>
                   </g>
                  </g>
                 </g>
                </g>
               </g>
               <g transform="translate(-114.828 149.717)">
                <g transform="translate(0 0)">
                 <g transform="rotate(0)">
                  <g transform="scale(1 1)">
                   <g transform="skewX(0) skewY(0)">
                    <g opacity="1" transform="translate(114.828 -149.717)">
                     <path stroke-width="0.0782963" d="M-107.778 147.792C-107.502 148.821 -110.435 150.502 -114.328 151.545C-118.222 152.588 -121.602 152.599 -121.878 151.57C-122.153 150.541 -119.221 148.861 -115.327 147.817C-111.434 146.774 -108.054 146.763 -107.778 147.792Z" fill="#b3b3b3" stroke="none"/>
                    </g>
                   </g>
                  </g>
                 </g>
                </g>
               </g>
               <g transform="translate(-114.827 149.822)">
                <g transform="translate(0 0)">
                 <g transform="rotate(0)">
                  <g transform="scale(1 1)">
                   <g transform="skewX(0) skewY(0)">
                    <g opacity="1" transform="translate(114.827 -149.822)">
                     <path stroke-width="0.0703165" d="M-108.408 148.148C-108.153 149.06 -110.824 150.549 -114.372 151.474C-117.919 152.398 -120.998 152.408 -121.246 151.495C-121.5 150.583 -118.829 149.094 -115.282 148.169C-111.735 147.245 -108.656 147.235 -108.408 148.148Z" fill="url(#0x00000175b344c090)" stroke="none"/>
                    </g>
                   </g>
                  </g>
                 </g>
                </g>
               </g>
              </g>
             </g>
            </g>
           </g>
          </g>
         </g>
        </g>
       </g>
      </g>
     </g>
    </g>
   </g>
  </g>
 </g>
 <defs>
  <linearGradient id="0x00000175b2c15bf0">
   <stop offset="0" stop-color="#e6e6e6"/>
   <stop offset="1" stop-color="#1a1a1a"/>
  </linearGradient>
  <linearGradient xlink:href="#0x00000175b2c15bf0" gradientUnits="userSpaceOnUse" y1="469.957" x2="393.972" x1="403.387" id="0x00000175b344c090" y2="439.912"/>
 </defs>
</svg>