<svg id="svg19" version="1.1" viewBox="0 0 200 186" xmlns="http://www.w3.org/2000/svg">
                  <style id="style2">#g2825 {
                         stroke-linecap:round;
                         stroke-linejoin:round;
                         stroke: #000;
                         transform: translate(0 0);
                         transform-origin: 20% 80%;
                         animation: abana 3s .2s infinite alternate;
                     }
                     @keyframes abana {
                         0% {transform: rotate(0deg);}
                         100% {transform: rotate(10deg);}
                     }
                     #path20 {
                      stroke:rgb(144, 163, 144);
                      fill: rgb(42, 114, 42);
                      opacity: .7;
                     }</style>
                  <g id="g2825">
                   <path id="path4" d="m155 81c16-8 37-43 18-62-6-6-11-8-23-7-11 2-14 13-19 21 3 0.3 6-0.3 8 2 0 0 15-26 20-15 4 11-12 57-11 60 3-3 6-3 7 2z"/>
                   <path id="path8" d="m48 146 100-67"/>
                   <path id="path8-3" d="m49 150 106-70"/>
                   <path id="path10" d="m49 150-1-5-1-3"/>
                   <path id="path12" d="m48 146 91-112"/>
                   <path id="path14" d="m47 142 84-110"/>
                   <path id="path16" d="m47 142-5 5 0.2 7 7-4"/>
                  </g>
                  <g id="g2829">
                   <path id="path2" d="m41 146c-1 0.9-2-0.1-3 0.3-0.6 0.3-2-1-1 0.3 0.9 0.5 0.1 1-0.6 0.6-0.6-0.06-2 0.6-2 1 0.7 0.6 2 0.6 2 0.5-0.6 1-2 2-3 2-2 0.7-3 0.3-5 0.6-2 0.1-3-0.01-5 0.3-1-0.01-0.5-2-2-3-0.7-1-2-1-3-1-0.7 0.2-2 0.6-2 1 0.2 0.4-0.9 1-0.5 2-0.4 1 0.1 0.2 0.4-0.3-0.1 0.5 0.5 2 0.3 0.9-0.3-0.6 0.8-2 0.3-0.9 0.1 0.8 0.3-1 1-1 1-0.8 3-1 4-0.5 0.8 0.8 0.9 2 0.9 3-1 0.7-2 2-2 3 0.03 2 0.3 3 1 4 0.8 0.3 0.7 0.8 0.2 1-0.5 0.6-2 2-0.5 2 1 0.3 3 0.5 2 2 1-0.2-0.9 0.9 0.07 2 0.6 0.8 0.9 1 1 0.5 1 0.9 0.6-1 0.8-2 0.7-2-2-1-2-3 0.3-0.3 1-2 1-0.9-1 2 1 1 2 1 0.8 0.03 3-0.08 1 0.9-0.3 0.9 2 2 2 0.8 1 0.8 0.1-2 0.2-2-0.3-1-3-0.3-3-1 1 0.3 2-0.7 4-0.8 1-0.2 2 2 0.2 1-1 0.2-1 1-0.2 1 1 1 2-0.6 3-1 0.7-0.5-0.6-2 0.5-2-0.1 1 1 2 2 1 1-0.9 0.06 1-0.4 1 0.4 1-2 0-1 1-0.08 0.7 0.2 2 1 1 1 0.6 1-2 2-2 0.4-1 0.4-2 1-3 0.3-1-0.8-2-2-1-0.3-0.5 1-1 1-2 0.5-1 0.7-2 2-3 0.6-0.5 2 0.2 2-0.4 3-3-3-4-0.8-5zm-24 3c-0.03 0.5-2 1-0.5 0.4 0.2-0.1 0.3-0.3 0.5-0.4zm0.8 0.06c0.1 0.5-0.8 0.2 0 0z" style="stroke-width:.2;stroke:#000"/>
                   <path id="path18" d="m48 165s-6 2-14 2c-3 0.1-20 0.03-23-0.1-4-0.3-8-2-7-2 0.5-0.2 5-0.3 12-0.3 4-0.08 7-0.2 11-0.1l0.3-0.03c1 0.06 5 0.04 11-0.07 4-0.08 6-0.1 8-0.1 0 0 5-0.1 2 0.7z" style="stroke-width:.7;stroke:#000"/>
                  </g>
                  <g id="g1016" transform="translate(.2 -4)">
                   <path id="path20" d="m17 171c-1 1-1 1-3-0.2-2-1-4-1-6-0.06-1 1-1 1-3 0.4-2-1-4 2-1 4 2 1 3 1 5 0s2-1 4 0 3 1 5-0.09c1-1 1-1 3 0s3 1 5 0 2-1 3 0c2 1 3 1 5 0s2-1 3 0c2 1 3 1 5 0.09 2-1 2-1 4 0s3 1 5 0c2-2 1-5-1-4-1 0.6-1 0.5-3-0.4-2-1-4-1-6 0.06-1 1-1 1-3 0s-4-1-5-0.09c-1 1-2 1-3 0-2-1-4-1-5 0s-2 1-3 0.6c-1-2-5-1-5-0.3z">
                    <animateTransform animation-direction="alternate" attributeName="transform" dur="1s" from="1" repeatCount="indefinite" to="-1" type="translateX"/>
                   </path>
                   <use href="#path20" style="transform:translate(2px, 2px)"/>
                   <use href="#path20" style="transform:translate(-2px, 4px)"/>
                   <use href="#path20" style="transform:translate(2px, 6px)"/>
                  </g>
                 </svg>