<?xml version="1.0" encoding="UTF-8" standalone="no"?><svg xmlns="http://www.w3.org/2000/svg" viewBox="40 -5 196.1 182.1"><defs><filter id="b" width="1.29" height="1.29" x="-.15" y="-.15" color-interpolation-filters="sRGB"><feGaussianBlur stdDeviation="2.48"/></filter><filter id="c" width="1.16" height="1.14" x="-.08" y="-.07" color-interpolation-filters="sRGB"><feGaussianBlur stdDeviation=".52"/></filter><filter id="d" width="1.11" height="1.12" x="-.05" y="-.06" color-interpolation-filters="sRGB"><feGaussianBlur stdDeviation=".17"/></filter><linearGradient id="a" x1="66.6" x2="207" y1="51.8" y2="-2.41" gradientTransform="matrix(1 0 0 1.43 40 -22.42)" gradientUnits="userSpaceOnUse"><stop stop-color="#7e7eca"/><stop offset="1" stop-color="#212187"/></linearGradient></defs><circle cx="177.89" cy="77.03" r="20.5" style="mix-blend-mode:normal" fill="#c96e07" filter="url(#b)"/><path fill="#c6e9af" fill-opacity=".9" d="M40 176.5v-148L72.04-5l42.67 88.3 31.34-25.6 24.67 38.8 53.64-79.4v160z"/><path fill="#8dd35f" d="M40 176.5v-148l31.59 13.2 27.34 36.2 27.33-38 30.88 60.9 68.66-60v136z"/><g fill="#353535"><path d="M191.02 62.03c.05 2.67 1.4 3.15 2.3 4.35 2.12 2.64 1.77 5.47-.03 8.45-.37-1.44-.33-2.7-2.04-4.4-.64-.63-1.06-1.53-.93-2.3.63.88 1.24 1.22 1.85 1.65-1.2-1.4-2.5-2.8-1.85-4.26l2.2 2.67c-2.16-3.37-2.3-5.13-1.5-6.14z"/><path d="M183.02 63.49c1.8 2.6 3.42 2.17 5.1 2.78 3.82 1.2 5.34 4.21 5.5 8.3-1.3-1.18-2.09-2.43-4.88-2.98-1.05-.2-2.05-.82-2.42-1.65 1.2.44 2.01.38 2.89.4-2.1-.59-4.29-1.1-4.61-2.97l3.93 1.18c-4.34-1.9-5.64-3.53-5.51-5.06z"/><path d="M199.76 64.94c-.93.97-2.22-.01-3.36.43-.54.38-2.5-.82-1.3.4.92.45.2 1.03-.52.66-.64-.01-1.87.77-1.8 1.25.7.5 1.65.45 2.31.3-.51 1.32-1.88 1.84-3.09 2.33-1.46.81-3.18.56-4.75.94-1.49.2-3 .2-4.44.57-1.47.1-.68-2.09-1.97-2.54a3.2 3.2 0 00-3.4-.85c-.72.25-2.4.77-2.32 1.36.21.37-.79 1.07-.42 1.7-.32 1.15.13.23.4-.3-.07.52.6 2.24.35.87-.38-.53.6-2.27.2-.87.17.76.25-1.1.9-1.1.99-.84 2.48-1.6 3.69-.73.86.77 1.09 2.11 1.13 3.2-.97.8-2.28 1.7-1.37 3.13.14 1.47.5 2.96 1.4 4.17.75.22.77.75.31 1.25-.4.65-1.94 2.31-.35 2.22.98.25 2.63.3 2.46 1.47 1.23-.25-.86.98.19 1.6.62.78 1 1.13 1.26.42 1.19.77.47-1.5.64-2.19.55-1.68-2.3-1.23-2.04-2.72.26-.35 1.08-2.31.95-.95-.84 1.6 1.2 1.2 2.16 1.05.75-.03 2.52-.27 1.44.79-.21.93 2.1 1.99 1.82.69 1.34.71-.02-1.69.05-2.33-.37-1.2-2.62-.07-2.68-.94 1.3.22 2.3-.83 3.6-1 1.06-.26 1.76 1.96.29 1.44-.96.22-1.2 1.07-.12 1.34 1.21 1.1 2.22-.8 2.9-1.6.64-.53-.73-2.22.4-1.88-.04 1.44 1.44 1.4 2.35.77 1.3-1.03.14.98-.34 1.34.47 1.05-1.74.12-1.3 1.5-.04.74.32 1.8 1.1 1.32 1.02.48 1.1-1.72 1.9-2.16.29-1.15.22-2.45 1.04-3.42.24-1.08-.97-1.82-1.8-1-.33-.51 1-1.38.94-2.24.4-1.09.5-2.4 1.46-3.17.55-.56 1.58.07 2.21-.53 1.49-.79.28-2.54-.8-3.08-.65-.69-1.59-1.39-2.05-2.01.08-.24.66-.68.34-.9zm-23.73 4.59c0 .46-1.55 1.56-.52.42.16-.16.3-.33.52-.42zm.81 0c.14.46-.8.3 0 0z"/><path d="M183.02 63.49c1.8 2.6 3.42 2.17 5.1 2.78 3.82 1.2 5.33 4.21 5.5 8.3-1.3-1.18-2.09-2.43-4.88-2.98-1.05-.2-2.05-.82-2.42-1.65 1.2.44 2.01.38 2.89.4-2.1-.59-4.29-1.1-4.61-2.97l3.93 1.18c-4.34-1.9-5.64-3.53-5.51-5.06z"/></g><path fill="#338000" d="M225.8 176.5v-103l-31.59 9.22-27.34 25.2-27.33-26.4-30.88 42.4L40 82.12v94.7z"/><path fill="#2d5016" d="M225.83 158.5l-45.56-25.6-44.42 20.3-95.55 22.9h185.8z"/><g fill="#4c4c4c" stroke="#000002"><path stroke-linecap="round" stroke-linejoin="round" stroke-width=".08" d="M75.58 16.66c-.55.53-.79.92-.58 1.29-.31.35-.65.88-1.07 1.3l-2.54 4.33c-1.58.44-2.97 2.1-4.42 3.4a16.32 16.32 0 00-5.24 9.9c-.17 1.55-1.74 3.01.2 4.7.7 1.9 2.18 3.35 3.3 5 .14.88.04 1.64-.03 2.41l.44.38-.38 1c.09.16.2.28.46.13l.68-.78c.25.33.33.28.46.33 1.75-.52 2.45-.12 3.1.34.54-.02.43-.39.63-.58a1.62 1.62 0 01.36-1.13l-.46-.66c.23-.81-.67-1.51-1.26-2.24-.1-.44-.08-.85-.53-1.39l.33-1.28c.65-.23 1.03-.38.86-.89 1 .4 1.54.12 2.06-.2.91.26 2.1.64 2.6.7.55-.1.94-.42 1.15-1.02-.07-.38-.53-.3-.86-.38-.1-.4.32-.66.49-.99-.23-.35-.56-.29-.86-.38-.31.2-.36.54-1.08.5-.58-1.1-2.11-.77-3.2-1.12-.4-.84.16-1.45.32-2.15.93-.33 1.37-1.17 1.78-2.03l.34.16.07.26.3-.25.37-.05.45.28.21-.44.54.16.2-.84c.86.43 1.68.88 2.19 1.49.6.15 1.09.36 1.17.75.67.2.85.07.81-.2-.1-.36-.2-.76-.34-.82l-.71-.18c.25-.43.02-.62-.18-.8l-1.26-.75c-.22-.41-.5-.83-.44-1.17l1.24.47L79 35.25c.73.23 1.38.4 1.47.12h0c.19-.16-.44-.88-.67-1.33l-.45-.08a3.06 3.06 0 00-1.03-1.07l.07-.5c-.4-.51-.8-1.02-.86-1.6-1.47-.45-1.69-1.23-1.87-2.01a8.45 8.45 0 00-1.27-2.66.26.26 0 01.1-.07l-1.08-1.8c-.47-.96.77-4.1 1.04-4.9l1.64-1.83c.02-1-.27-.83-.5-.87z"/><path stroke-width=".06" d="M74.88 10.2h1.45l-.45-.57c8.34-6.35-8.77-6.18-.62 0z"/><path stroke-width=".4" d="M75.69 10.74c1.33 2.4-3.44 5-.73 6.83"/></g><g transform="matrix(.613 -.144 .144 .613 -372.79 19.9)"><circle cx="747" cy="380" r="15"/><path fill="#fff" d="M749 367c-10.8.1-16 6.04-15.6 17.9 1.02-8.98 4.07-16.5 15.6-17.9z" filter="url(#c)"/><circle cx="747" cy="380" r="15"/><path fill="#fff" d="M749 367c-10.8.1-16 6.04-15.6 17.9 1.02-8.98 4.07-16.5 15.6-17.9z" filter="url(#c)"/></g><path d="M96.18 157.09c2.1.21 3.28-1.37 4.86-2.43 2.29-1.52 6.97-2.8 8.15 1.91 1.35 5.99-4.88 7.62-8.96 3.45a6.28 6.28 0 00-4.04-1.65z"/><path fill="#fff" d="M683 431c6.78-.66 8.11 2.33 7.4 6.7.53-4.32-1.53-6.86-7.4-6.7z" filter="url(#d)" transform="matrix(.613 -.144 .144 .613 -378.11 -11.57)"/><g stroke-width="1.4" transform="matrix(.327 -.307 .307 .327 -241.4 257.34)"><circle cx="747" cy="380" r="15"/><path fill="#fff" d="M749 367c-10.8.1-16 6.04-15.6 17.9 1.02-8.98 4.07-16.5 15.6-17.9z" filter="url(#c)"/><circle cx="747" cy="380" r="15"/><path fill="#fff" d="M749 367c-10.8.1-16 6.04-15.6 17.9 1.02-8.98 4.07-16.5 15.6-17.9z" filter="url(#c)"/></g><path d="M89.2 149.93c-.07 0-.1.17-.1.5.01 1.06-.41 1.76-1.04 1.69-.4-.04-.76.3-.97.93-.33.98-.58 1.15-1.35.9-.84-.28-1.81-.1-2.16.38-.46.66-1.85.83-4.45.53-2.24-.26-3.76-.12-5.21.49-.46.19-1.9.73-3.23 1.2-1.3.47-2.8 1.02-3.31 1.22-.51.2-1.11.39-1.33.42-.22.03-.43.1-.47.14-.03.05-.25.12-.48.17-.65.15-2.16.94-4.2 2.2-3.32 2.05-3.4 2.11-3.92 2.88-.37.55-.74.9-1.63 1.52-1.6 1.14-1.86 2.09-1.05 3.86 1.16 2.54 2.52 3.35 5.78 3.44 1.04.03 2.15.1 2.46.15.3.05.98.09 1.48.09s1.1 0 1.33.03c.22.02.47 0 .55-.03.08-.04.2-.07.25-.08.19-.02.03-.57-.19-.65-.41-.15-2.09-.16-3.48-.03-3.52.34-5.94-.51-7.04-2.5-.29-.52-.29-.52 1.27.61 1.93 1.41 2.03 1.45 3.84 1.3a24.2 24.2 0 013.2-.02c.98.06 1.92.1 2.09.07.6-.09.82 0 .95.4.15.43.19.43 1.97 0 3.55-.86 6.21-1.38 6.8-1.33.56.06.95-.02 1.8-.37.5-.22.5-.35-.09-.8-.46-.35-.46-.35.5-.73 1.89-.78 2.34-.81 2.43-.2.1.64-.25.68 3.4-.4 2.85-.85 2.9-.89 2.29-2.1-.19-.36-.34-.51-.6-.58-.46-.12-.46-.23-.03-1.13a6.22 6.22 0 013.68-3.2c.97-.26 3.88-1.1 4.4-1.26.2-.06.6-.08.9-.04.5.07 1.25-.48 1.19-.88-.01-.04.1-.24.23-.44.63-.9.4-1.19-2.03-2.5a35.8 35.8 0 01-2.6-1.54 50.5 50.5 0 00-1.35-.94c-.73-.5-.73-.5-.41-1.22.28-.65.3-.8.2-1.4-.08-.5-.18-.77-.25-.77z"/><path stroke="#fff" stroke-linecap="round" stroke-linejoin="round" stroke-width=".08" d="M96.44 156a1.57 2.25 4.08 00-1.43 2.06 1.57 2.25 4.08 001.38 2.4 1.57 2.25 4.08 001.76-2.08 1.57 2.25 4.08 00-1.38-2.4 1.57 2.25 4.08 00-.33 0zm.03.51a1.26 1.8 4.08 01.28-.01 1.26 1.8 4.08 011.1 1.93 1.26 1.8 4.08 01-1.42 1.67 1.26 1.8 4.08 01-1.1-1.93 1.26 1.8 4.08 011.14-1.66zm-.8 3.85l-1.84 5.08 1.19.28 1.03-5.28z"/></svg>