<svg xmlns="http://www.w3.org/2000/svg" viewBox="0 0 42 42" width="48" height="48">
 <g
     transform="translate(-63.767356,-98.285708)">
    <g
       id="g1165">
      <path
         d="m 87.118069,121.25348 c 1.161481,-0.30071 1.160347,-1.52819 1.80171,-2.27209 0.362468,-1.07163 1.483686,-1.09904 2.125275,-2.10793 0.841683,-0.72329 0.665653,-2.59802 2.206113,-2.92351 1.075495,-0.34761 2.029972,-1.93013 2.808466,-2.00332 0.127011,1.18052 -0.150643,2.45835 -0.491189,3.57743 l -1.117153,2.21103 c 0.116616,1.83105 1.895497,0.1308 1.097871,-0.80098 0.472032,-1.04552 0.964506,-2.07323 1.199687,-3.20262 0,0 1.129502,-4.13955 1.485791,-5.4171 0.356293,-1.27755 -3.324705,-3.26375 -5.190845,-4.57506 -3.673168,-2.47795 -8.164574,-3.793716 -12.600246,-3.33166 -1.544454,0.28271 -3.327619,-0.680518 -4.67409,0.45116 -0.800206,1.18012 -2.010225,1.93438 -2.933224,3.03105 -0.915216,1.04771 -1.714583,2.19139 -2.649328,3.22259 -0.851529,0.53621 -2.139655,0.29936 -2.848361,0.85438 -0.101559,0.65324 -0.752358,0.28028 -1.201959,0.28324 -0.86517,0.009 0.03029,0.85639 0.495031,0.915 0.618453,0.19309 -0.273392,0.9751 0.422033,1.42545 0.887544,1.01942 -0.028,2.43138 0.409048,3.35382 0.7719,-0.066 1.877777,0.59324 2.353344,-0.21302 0.840638,-0.41856 1.726995,-0.97321 2.154466,-1.95943 0.728812,-0.47701 1.397174,-1.44773 2.357637,-1.3255 0.951974,-0.36808 1.102876,0.85829 1.914295,0.82469 0.284598,0.2113 0.100925,1.79945 0.988869,2.18597 0.145891,1.25994 -0.615422,2.90726 0.50346,3.8439 0.721239,0.67719 1.46623,0.0868 1.099665,-0.76735 0.629107,-0.2142 1.699911,0.80715 1.460464,-0.5306 -0.301621,-0.59484 -1.375332,-1.20044 -0.446702,-1.95171 0.685989,-1.16502 -1.051298,-3.54332 0.891027,-3.70774 1.297046,-0.2331 1.958599,0.67817 2.993748,1.20756 0.731529,0.14103 1.815819,0.41793 1.078767,0.99891 0.497488,0.22542 0.511675,0.78864 0.277152,1.21559 0.761127,-0.16165 0.365455,0.63928 0.678293,0.76958 1.154318,-0.31264 0.779312,0.61427 0.489729,1.38946 -0.530304,1.17356 -0.9017,2.41735 -1.219887,3.54463 0.323589,0.96586 1.641425,-0.25484 1.282216,-1.02212 0.645782,0.078 1.015023,-0.74775 1.130105,-1.40858 0.09453,-0.76625 0.693133,-1.37463 1.426212,-1.57504 -0.151894,0.66687 0.02513,1.46098 -0.498983,1.98389 l -1.506605,2.11519 c 0.0079,0.49723 -0.185537,1.45467 0.248098,1.69084 z"
         style="stroke-width:0.896953" />
    </g>
  </g>
</svg>